<mxfile host="app.diagrams.net" modified="2022-11-20T13:11:00.792Z" agent="5.0 (Windows NT 10.0; Win64; x64) AppleWebKit/537.36 (KHTML, like Gecko) Chrome/91.0.4472.124 Safari/537.36" etag="RG8KD_cJq_G2lhDNpY5X" version="20.5.3" type="github">
  <diagram id="C5RBs43oDa-KdzZeNtuy" name="Page-1">
    <mxGraphModel dx="1038" dy="543" grid="1" gridSize="10" guides="1" tooltips="1" connect="1" arrows="1" fold="1" page="1" pageScale="1" pageWidth="827" pageHeight="1169" math="0" shadow="0">
      <root>
        <mxCell id="WIyWlLk6GJQsqaUBKTNV-0" />
        <mxCell id="WIyWlLk6GJQsqaUBKTNV-1" parent="WIyWlLk6GJQsqaUBKTNV-0" />
        <mxCell id="DNY2DiBMHy7BrOpBibKC-4" style="edgeStyle=orthogonalEdgeStyle;rounded=0;orthogonalLoop=1;jettySize=auto;html=1;entryX=0;entryY=0.5;entryDx=0;entryDy=0;" edge="1" parent="WIyWlLk6GJQsqaUBKTNV-1" source="DNY2DiBMHy7BrOpBibKC-0" target="DNY2DiBMHy7BrOpBibKC-1">
          <mxGeometry relative="1" as="geometry" />
        </mxCell>
        <mxCell id="DNY2DiBMHy7BrOpBibKC-0" value="User puts VR headset" style="rounded=0;whiteSpace=wrap;html=1;" vertex="1" parent="WIyWlLk6GJQsqaUBKTNV-1">
          <mxGeometry x="139" y="390" width="120" height="60" as="geometry" />
        </mxCell>
        <mxCell id="DNY2DiBMHy7BrOpBibKC-10" style="edgeStyle=orthogonalEdgeStyle;rounded=0;orthogonalLoop=1;jettySize=auto;html=1;entryX=0;entryY=0.5;entryDx=0;entryDy=0;" edge="1" parent="WIyWlLk6GJQsqaUBKTNV-1" source="DNY2DiBMHy7BrOpBibKC-1" target="DNY2DiBMHy7BrOpBibKC-5">
          <mxGeometry relative="1" as="geometry" />
        </mxCell>
        <mxCell id="DNY2DiBMHy7BrOpBibKC-1" value="Choose Therapy" style="rounded=0;whiteSpace=wrap;html=1;" vertex="1" parent="WIyWlLk6GJQsqaUBKTNV-1">
          <mxGeometry x="359" y="390" width="120" height="60" as="geometry" />
        </mxCell>
        <mxCell id="DNY2DiBMHy7BrOpBibKC-8" style="edgeStyle=orthogonalEdgeStyle;rounded=0;orthogonalLoop=1;jettySize=auto;html=1;entryX=0.413;entryY=-0.037;entryDx=0;entryDy=0;entryPerimeter=0;" edge="1" parent="WIyWlLk6GJQsqaUBKTNV-1" source="DNY2DiBMHy7BrOpBibKC-5" target="DNY2DiBMHy7BrOpBibKC-6">
          <mxGeometry relative="1" as="geometry" />
        </mxCell>
        <mxCell id="DNY2DiBMHy7BrOpBibKC-5" value="Enters the Digital therapy centre" style="rounded=0;whiteSpace=wrap;html=1;" vertex="1" parent="WIyWlLk6GJQsqaUBKTNV-1">
          <mxGeometry x="559" y="390" width="120" height="60" as="geometry" />
        </mxCell>
        <mxCell id="DNY2DiBMHy7BrOpBibKC-9" style="edgeStyle=orthogonalEdgeStyle;rounded=0;orthogonalLoop=1;jettySize=auto;html=1;" edge="1" parent="WIyWlLk6GJQsqaUBKTNV-1" source="DNY2DiBMHy7BrOpBibKC-6" target="DNY2DiBMHy7BrOpBibKC-7">
          <mxGeometry relative="1" as="geometry" />
        </mxCell>
        <mxCell id="DNY2DiBMHy7BrOpBibKC-6" value="Do the whole Therapy" style="rounded=0;whiteSpace=wrap;html=1;" vertex="1" parent="WIyWlLk6GJQsqaUBKTNV-1">
          <mxGeometry x="569" y="600" width="120" height="60" as="geometry" />
        </mxCell>
        <mxCell id="DNY2DiBMHy7BrOpBibKC-7" value="Exit" style="rounded=0;whiteSpace=wrap;html=1;" vertex="1" parent="WIyWlLk6GJQsqaUBKTNV-1">
          <mxGeometry x="369" y="600" width="120" height="60" as="geometry" />
        </mxCell>
        <mxCell id="DNY2DiBMHy7BrOpBibKC-12" value="&lt;font style=&quot;font-size: 24px;&quot;&gt;Flowchart for Digital therapy centre functionalty&lt;/font&gt;" style="text;html=1;strokeColor=none;fillColor=none;align=center;verticalAlign=middle;whiteSpace=wrap;rounded=0;" vertex="1" parent="WIyWlLk6GJQsqaUBKTNV-1">
          <mxGeometry x="254" y="860" width="320" height="50" as="geometry" />
        </mxCell>
      </root>
    </mxGraphModel>
  </diagram>
</mxfile>
